{
 "asset" : {
  "generator" : "Generated by Pixyz Studio 2021.1 Update 1",
  "version" : "2.0"},
 "nodes" : [
  {
   "name" : "Color #ff8000ff",
   "mesh" : 0},
  {
   "name" : "BRep_1",
   "matrix" : [
    1,
    0,
    0,
    0,
    0,
    1,
    0,
    0,
    0,
    0,
    1,
    0,
    0,
    0,
    0,
    1],
   "children" : [
    0]},
  {
   "name" : "95642-01",
   "matrix" : [
    1,
    0,
    -0,
    0,
    -0,
    1,
    0,
    0,
    0,
    0,
    1,
    0,
    0.078969,
    0.255906,
    -27.543307,
    1],
   "children" : [
    1],
   "extras" : {
    "__STEP/ProductName" : "95642-01_AF2_ASM",
    "__STEP/ProductID" : "95642-01_AF2_ASM",
    "__STEP/Description" : "NOT SPECIFIED",
    "__STEP/ProductDefinition" : "design",
    "__STEP/MakeOrBuy" : ".MADE."}},
  {
   "name" : "95643-01",
   "matrix" : [
    25.4,
    0,
    -0,
    0,
    -0,
    25.4,
    0,
    0,
    0,
    0,
    25.4,
    0,
    -2.0058,
    -133.5,
    0.096,
    1],
   "children" : [
    2],
   "extras" : {
    "__STEP/ProductName" : "95643-01_ASM",
    "__STEP/ProductID" : "95643-01_ASM",
    "__STEP/Description" : "NOT SPECIFIED",
    "__STEP/ProductDefinition" : "design",
    "__STEP/MakeOrBuy" : ".MADE."}},
  {
   "name" : "Color #ccccccff",
   "matrix" : [
    0,
    0,
    -1,
    0,
    0,
    1,
    0,
    0,
    1,
    0,
    0,
    0,
    11.95,
    -0.2,
    -1078.05,
    1],
   "mesh" : 1},
  {
   "name" : "186030_ENDANSCHLAG",
   "matrix" : [
    0,
    0,
    1,
    0,
    0,
    1,
    -0,
    0,
    -1,
    0,
    0,
    0,
    209.4,
    2.07,
    -641.551,
    1],
   "children" : [
    4],
   "extras" : {
    "__STEP/ProductName" : "186030_ENDANSCHLAG_ASM",
    "__STEP/ProductID" : "186030_ENDANSCHLAG_ASM",
    "__STEP/Description" : "NOT SPECIFIED",
    "__STEP/ProductDefinition" : "design",
    "__STEP/MakeOrBuy" : ".MADE."}},
  {
   "name" : "Color #010101ff",
   "matrix" : [
    0,
    0,
    1,
    0,
    0,
    1,
    0,
    0,
    -1,
    0,
    0,
    0,
    9.5,
    -2.5,
    -38.425,
    1],
   "mesh" : 2},
  {
   "name" : "173000_EINZUG_SCHLUSS",
   "matrix" : [
    1,
    0,
    -0,
    0,
    -0,
    1,
    0,
    0,
    0,
    0,
    1,
    0,
    1282.5,
    0.8,
    14.449,
    1],
   "children" : [
    6],
   "extras" : {
    "__STEP/ProductName" : "173000_EINZUG_SCHLUSS_ASM",
    "__STEP/ProductID" : "173000_EINZUG_SCHLUSS_ASM",
    "__STEP/Description" : "NOT SPECIFIED",
    "__STEP/ProductDefinition" : "design",
    "__STEP/MakeOrBuy" : ".MADE."}},
  {
   "name" : "Color #bab583ff",
   "matrix" : [
    0,
    1,
    0,
    0,
    -1,
    0,
    0,
    0,
    0,
    0,
    1,
    0,
    176,
    -167.9926,
    -644.554,
    1],
   "mesh" : 3},
  {
   "name" : "Color #00ff00ff",
   "matrix" : [
    0,
    0,
    1,
    0,
    0,
    1,
    0,
    0,
    -1,
    0,
    0,
    0,
    135.1036,
    -111.5,
    -534.8908,
    1],
   "mesh" : 4},
  {
   "name" : "Color #f4f4f4ff",
   "matrix" : [
    0,
    0,
    -25.4,
    0,
    0,
    25.4,
    0,
    0,
    25.4,
    0,
    0,
    0,
    1456,
    -4.0044,
    36.449,
    1],
   "mesh" : 5},
  {
   "name" : "6607700-01_SKELETON",
   "matrix" : [
    1,
    0,
    -0,
    0,
    -0,
    1,
    0,
    0,
    0,
    0,
    1,
    0,
    0,
    0,
    0,
    1],
   "children" : [
    3,
    5,
    7,
    8,
    9,
    10],
   "extras" : {
    "__STEP/ProductName" : "6607700-01_SKELETON_ASM",
    "__STEP/ProductID" : "6607700-01_SKELETON_ASM",
    "__STEP/Description" : "NOT SPECIFIED",
    "__STEP/ProductDefinition" : "design",
    "__STEP/MakeOrBuy" : ".MADE."}},
  {
   "name" : "Color #4b4b4bff",
   "matrix" : [
    1,
    0,
    0,
    0,
    0,
    1,
    0,
    0,
    0,
    0,
    1,
    0,
    1560,
    -0,
    -11.051,
    1],
   "mesh" : 6},
  {
   "name" : "6607700-01_HOUSING",
   "matrix" : [
    1,
    0,
    -0,
    0,
    -0,
    1,
    0,
    0,
    0,
    0,
    1,
    0,
    0,
    0,
    0,
    1],
   "children" : [
    12],
   "extras" : {
    "__STEP/ProductName" : "6607700-01_HOUSING_ASM",
    "__STEP/ProductID" : "6607700-01_HOUSING_ASM",
    "__STEP/Description" : "NOT SPECIFIED",
    "__STEP/ProductDefinition" : "design",
    "__STEP/MakeOrBuy" : ".MADE."}},
  {
   "name" : "NoMaterial",
   "matrix" : [
    1,
    0,
    0,
    0,
    0,
    1,
    0,
    0,
    0,
    0,
    1,
    0,
    1284.75,
    -4.7,
    -27.551,
    1],
   "mesh" : 7},
  {
   "name" : "Color #323232ff",
   "matrix" : [
    25.4,
    0,
    0,
    0,
    0,
    25.4,
    0,
    0,
    0,
    0,
    25.4,
    0,
    0,
    -127,
    -699.504,
    1],
   "mesh" : 8},
  {
   "name" : "Color #959595ff",
   "matrix" : [
    1,
    0,
    0,
    0,
    0,
    1,
    0,
    0,
    0,
    0,
    1,
    0,
    825.5,
    1.87,
    -679.051,
    1],
   "mesh" : 9},
  {
   "name" : "Color #ffffffff",
   "matrix" : [
    0,
    0,
    -1,
    0,
    0,
    1,
    0,
    0,
    1,
    0,
    0,
    0,
    18,
    -1.5,
    -706.551,
    1],
   "mesh" : 10},
  {
   "name" : "6607700-01_STAR_ASM",
   "matrix" : [
    1,
    0,
    0,
    0,
    0,
    1,
    0,
    0,
    0,
    0,
    1,
    0,
    -518.04,
    18.233,
    89.914,
    1],
   "children" : [
    11,
    13,
    14,
    15,
    16,
    17],
   "extras" : {
    "__STEP/ProductName" : "6607700-01_STAR_ASM",
    "__STEP/ProductID" : "6607700-01_STAR_ASM",
    "__STEP/Description" : "NOT SPECIFIED",
    "__STEP/ProductDefinition" : "design",
    "__STEP/MakeOrBuy" : ".MADE."}},
  {
   "name" : "6607700-01_star_asm.stp",
   "children" : [
    18]}],
 "scenes" : [
  {
   "name" : "Root",
   "nodes" : [
    19]}],
 "scene" : 0,
 "buffers" : [
  {
   "byteLength" : 10111236,
   "uri" : "star_deck.bin"}],
 "bufferViews" : [
  {
   "buffer" : 0,
   "byteOffset" : 0,
   "byteLength" : 1665192,
   "target" : 34963},
  {
   "buffer" : 0,
   "byteOffset" : 1665192,
   "byteLength" : 438492,
   "target" : 34963},
  {
   "buffer" : 0,
   "byteOffset" : 2103684,
   "byteLength" : 6005664,
   "byteStride" : 12,
   "target" : 34962},
  {
   "buffer" : 0,
   "byteOffset" : 8109348,
   "byteLength" : 2001888,
   "byteStride" : 8,
   "target" : 34962}],
 "accessors" : [
  {
   "bufferView" : 0,
   "count" : 416298,
   "componentType" : 5125,
   "type" : "SCALAR",
   "byteOffset" : 0,
   "min" : [
    0],
   "max" : [
    176773]},
  {
   "bufferView" : 1,
   "count" : 696,
   "componentType" : 5123,
   "type" : "SCALAR",
   "byteOffset" : 0,
   "min" : [
    0],
   "max" : [
    357]},
  {
   "bufferView" : 1,
   "count" : 19656,
   "componentType" : 5123,
   "type" : "SCALAR",
   "byteOffset" : 1392,
   "min" : [
    0],
   "max" : [
    6607]},
  {
   "bufferView" : 1,
   "count" : 1008,
   "componentType" : 5123,
   "type" : "SCALAR",
   "byteOffset" : 40704,
   "min" : [
    0],
   "max" : [
    479]},
  {
   "bufferView" : 1,
   "count" : 21384,
   "componentType" : 5123,
   "type" : "SCALAR",
   "byteOffset" : 42720,
   "min" : [
    0],
   "max" : [
    6863]},
  {
   "bufferView" : 1,
   "count" : 7248,
   "componentType" : 5123,
   "type" : "SCALAR",
   "byteOffset" : 85488,
   "min" : [
    0],
   "max" : [
    2649]},
  {
   "bufferView" : 1,
   "count" : 9900,
   "componentType" : 5123,
   "type" : "SCALAR",
   "byteOffset" : 99984,
   "min" : [
    0],
   "max" : [
    3199]},
  {
   "bufferView" : 1,
   "count" : 3012,
   "componentType" : 5123,
   "type" : "SCALAR",
   "byteOffset" : 119784,
   "min" : [
    0],
   "max" : [
    1003]},
  {
   "bufferView" : 1,
   "count" : 116874,
   "componentType" : 5123,
   "type" : "SCALAR",
   "byteOffset" : 125808,
   "min" : [
    0],
   "max" : [
    38805]},
  {
   "bufferView" : 1,
   "count" : 18936,
   "componentType" : 5123,
   "type" : "SCALAR",
   "byteOffset" : 359556,
   "min" : [
    0],
   "max" : [
    7542]},
  {
   "bufferView" : 1,
   "count" : 20532,
   "componentType" : 5123,
   "type" : "SCALAR",
   "byteOffset" : 397428,
   "min" : [
    0],
   "max" : [
    5948]},
  {
   "bufferView" : 2,
   "count" : 358,
   "componentType" : 5126,
   "type" : "VEC3",
   "byteOffset" : 0,
   "min" : [
    0.179000,
    0.000000,
    -1.294000],
   "max" : [
    64.860367,
    5.000000,
    27.503937]},
  {
   "bufferView" : 2,
   "count" : 358,
   "componentType" : 5126,
   "type" : "VEC3",
   "byteOffset" : 4296,
   "min" : [
    -0.707107,
    -0.999660,
    -1.000000],
   "max" : [
    0.707107,
    1.000000,
    1.000000]},
  {
   "bufferView" : 2,
   "count" : 6608,
   "componentType" : 5126,
   "type" : "VEC3",
   "byteOffset" : 8592,
   "min" : [
    -1080.000000,
    0.000000,
    0.000000],
   "max" : [
    179.800003,
    13.500000,
    22.454666]},
  {
   "bufferView" : 2,
   "count" : 6608,
   "componentType" : 5126,
   "type" : "VEC3",
   "byteOffset" : 87888,
   "min" : [
    -1.000000,
    -1.000000,
    -1.000000],
   "max" : [
    1.000000,
    1.000000,
    1.000000]},
  {
   "bufferView" : 2,
   "count" : 480,
   "componentType" : 5126,
   "type" : "VEC3",
   "byteOffset" : 167184,
   "min" : [
    -18.908438,
    -7.350872,
    -115.000000],
   "max" : [
    5.073034,
    4.875000,
    7.840313]},
  {
   "bufferView" : 2,
   "count" : 480,
   "componentType" : 5126,
   "type" : "VEC3",
   "byteOffset" : 172944,
   "min" : [
    -1.000000,
    -1.000000,
    -1.000000],
   "max" : [
    1.000000,
    1.000000,
    1.000000]},
  {
   "bufferView" : 2,
   "count" : 6864,
   "componentType" : 5126,
   "type" : "VEC3",
   "byteOffset" : 178704,
   "min" : [
    0.000000,
    -1311.849976,
    -11.850000],
   "max" : [
    48.500000,
    11.850001,
    512.349976]},
  {
   "bufferView" : 2,
   "count" : 6864,
   "componentType" : 5126,
   "type" : "VEC3",
   "byteOffset" : 261072,
   "min" : [
    -1.000000,
    -1.000000,
    -1.000000],
   "max" : [
    1.000000,
    1.000000,
    1.000000]},
  {
   "bufferView" : 2,
   "count" : 2650,
   "componentType" : 5126,
   "type" : "VEC3",
   "byteOffset" : 343440,
   "min" : [
    -90.210197,
    0.000000,
    -236.158798],
   "max" : [
    130.000000,
    118.570000,
    15.600000]},
  {
   "bufferView" : 2,
   "count" : 2650,
   "componentType" : 5126,
   "type" : "VEC3",
   "byteOffset" : 375240,
   "min" : [
    -1.000000,
    -1.000000,
    -1.000000],
   "max" : [
    1.000000,
    1.000000,
    1.000000]},
  {
   "bufferView" : 2,
   "count" : 3200,
   "componentType" : 5126,
   "type" : "VEC3",
   "byteOffset" : 407040,
   "min" : [
    -0.000000,
    -3.741720,
    -55.738583],
   "max" : [
    7.584898,
    0.001478,
    0.196850]},
  {
   "bufferView" : 2,
   "count" : 3200,
   "componentType" : 5126,
   "type" : "VEC3",
   "byteOffset" : 445440,
   "min" : [
    -1.000000,
    -1.000000,
    -1.000000],
   "max" : [
    1.000000,
    1.000000,
    1.000000]},
  {
   "bufferView" : 2,
   "count" : 1004,
   "componentType" : 5126,
   "type" : "VEC3",
   "byteOffset" : 483840,
   "min" : [
    -1562.000000,
    -45.000000,
    -171.500000],
   "max" : [
    94.000000,
    2.000000,
    44.500000]},
  {
   "bufferView" : 2,
   "count" : 1004,
   "componentType" : 5126,
   "type" : "VEC3",
   "byteOffset" : 495888,
   "min" : [
    -1.000000,
    -1.000000,
    -1.000000],
   "max" : [
    1.000000,
    1.000000,
    1.000000]},
  {
   "bufferView" : 2,
   "count" : 38806,
   "componentType" : 5126,
   "type" : "VEC3",
   "byteOffset" : 507936,
   "min" : [
    -1284.755859,
    -165.792603,
    -699.820984],
   "max" : [
    323.750000,
    20.770000,
    228.248627]},
  {
   "bufferView" : 2,
   "count" : 38806,
   "componentType" : 5126,
   "type" : "VEC3",
   "byteOffset" : 973608,
   "min" : [
    -1.000000,
    -1.000000,
    -1.000000],
   "max" : [
    1.000000,
    1.000000,
    1.000000]},
  {
   "bufferView" : 2,
   "count" : 176774,
   "componentType" : 5126,
   "type" : "VEC3",
   "byteOffset" : 1439280,
   "min" : [
    -0.078969,
    -0.255906,
    -1.379921],
   "max" : [
    65.039368,
    5.841339,
    36.846577]},
  {
   "bufferView" : 2,
   "count" : 176774,
   "componentType" : 5126,
   "type" : "VEC3",
   "byteOffset" : 3560568,
   "min" : [
    -1.000000,
    -1.000000,
    -1.000000],
   "max" : [
    1.000000,
    1.000000,
    1.000000]},
  {
   "bufferView" : 2,
   "count" : 7543,
   "componentType" : 5126,
   "type" : "VEC3",
   "byteOffset" : 5681856,
   "min" : [
    -829.000000,
    -23.020000,
    -0.000000],
   "max" : [
    828.500000,
    83.129997,
    945.500000]},
  {
   "bufferView" : 2,
   "count" : 7543,
   "componentType" : 5126,
   "type" : "VEC3",
   "byteOffset" : 5772372,
   "min" : [
    -1.000000,
    -1.000000,
    -1.000000],
   "max" : [
    1.000000,
    1.000000,
    1.000000]},
  {
   "bufferView" : 2,
   "count" : 5949,
   "componentType" : 5126,
   "type" : "VEC3",
   "byteOffset" : 5862888,
   "min" : [
    -973.000000,
    -106.500000,
    0.000000],
   "max" : [
    10.000000,
    15.500000,
    1616.000000]},
  {
   "bufferView" : 2,
   "count" : 5949,
   "componentType" : 5126,
   "type" : "VEC3",
   "byteOffset" : 5934276,
   "min" : [
    -1.000000,
    -1.000000,
    -1.000000],
   "max" : [
    1.000000,
    1.000000,
    1.000000]},
  {
   "bufferView" : 3,
   "count" : 358,
   "componentType" : 5126,
   "type" : "VEC2",
   "byteOffset" : 0,
   "min" : [
    0.000977,
    0.003686],
   "max" : [
    0.960563,
    0.999023]},
  {
   "bufferView" : 3,
   "count" : 6608,
   "componentType" : 5126,
   "type" : "VEC2",
   "byteOffset" : 2864,
   "min" : [
    0.000977,
    0.024023],
   "max" : [
    0.451593,
    0.999023]},
  {
   "bufferView" : 3,
   "count" : 480,
   "componentType" : 5126,
   "type" : "VEC2",
   "byteOffset" : 55728,
   "min" : [
    -0.011443,
    0.000702],
   "max" : [
    0.366683,
    1.006419]},
  {
   "bufferView" : 3,
   "count" : 6864,
   "componentType" : 5126,
   "type" : "VEC2",
   "byteOffset" : 59568,
   "min" : [
    0.000977,
    0.002667],
   "max" : [
    0.977330,
    0.999023]},
  {
   "bufferView" : 3,
   "count" : 2650,
   "componentType" : 5126,
   "type" : "VEC2",
   "byteOffset" : 114480,
   "min" : [
    0.000977,
    0.002196],
   "max" : [
    0.994565,
    0.999023]},
  {
   "bufferView" : 3,
   "count" : 3200,
   "componentType" : 5126,
   "type" : "VEC2",
   "byteOffset" : 135680,
   "min" : [
    0.000977,
    0.002155],
   "max" : [
    0.988924,
    0.999023]},
  {
   "bufferView" : 3,
   "count" : 1004,
   "componentType" : 5126,
   "type" : "VEC2",
   "byteOffset" : 161280,
   "min" : [
    0.000977,
    0.007913],
   "max" : [
    0.933957,
    0.999023]},
  {
   "bufferView" : 3,
   "count" : 38806,
   "componentType" : 5126,
   "type" : "VEC2",
   "byteOffset" : 169312,
   "min" : [
    0.000598,
    0.001982],
   "max" : [
    0.988912,
    1.000927]},
  {
   "bufferView" : 3,
   "count" : 176774,
   "componentType" : 5126,
   "type" : "VEC2",
   "byteOffset" : 479760,
   "min" : [
    0.000480,
    0.001997],
   "max" : [
    0.996582,
    1.003143]},
  {
   "bufferView" : 3,
   "count" : 7543,
   "componentType" : 5126,
   "type" : "VEC2",
   "byteOffset" : 1893952,
   "min" : [
    0.000977,
    0.002164],
   "max" : [
    0.994847,
    0.999023]},
  {
   "bufferView" : 3,
   "count" : 5949,
   "componentType" : 5126,
   "type" : "VEC2",
   "byteOffset" : 1954296,
   "min" : [
    0.000977,
    0.003110],
   "max" : [
    0.984907,
    0.999023]}],
 "meshes" : [
  {
   "primitives" : [
    {
     "mode" : 4,
     "material" : 0,
     "indices" : 1,
     "attributes" : {
      "POSITION" : 11,
      "NORMAL" : 12,
      "TEXCOORD_0" : 33}}]},
  {
   "primitives" : [
    {
     "mode" : 4,
     "material" : 1,
     "indices" : 2,
     "attributes" : {
      "POSITION" : 13,
      "NORMAL" : 14,
      "TEXCOORD_0" : 34}}]},
  {
   "primitives" : [
    {
     "mode" : 4,
     "material" : 2,
     "indices" : 3,
     "attributes" : {
      "POSITION" : 15,
      "NORMAL" : 16,
      "TEXCOORD_0" : 35}}]},
  {
   "primitives" : [
    {
     "mode" : 4,
     "material" : 3,
     "indices" : 4,
     "attributes" : {
      "POSITION" : 17,
      "NORMAL" : 18,
      "TEXCOORD_0" : 36}}]},
  {
   "primitives" : [
    {
     "mode" : 4,
     "material" : 4,
     "indices" : 5,
     "attributes" : {
      "POSITION" : 19,
      "NORMAL" : 20,
      "TEXCOORD_0" : 37}}]},
  {
   "primitives" : [
    {
     "mode" : 4,
     "material" : 5,
     "indices" : 6,
     "attributes" : {
      "POSITION" : 21,
      "NORMAL" : 22,
      "TEXCOORD_0" : 38}}]},
  {
   "primitives" : [
    {
     "mode" : 4,
     "material" : 6,
     "indices" : 7,
     "attributes" : {
      "POSITION" : 23,
      "NORMAL" : 24,
      "TEXCOORD_0" : 39}}]},
  {
   "primitives" : [
    {
     "mode" : 4,
     "indices" : 8,
     "attributes" : {
      "POSITION" : 25,
      "NORMAL" : 26,
      "TEXCOORD_0" : 40}}]},
  {
   "primitives" : [
    {
     "mode" : 4,
     "material" : 7,
     "indices" : 0,
     "attributes" : {
      "POSITION" : 27,
      "NORMAL" : 28,
      "TEXCOORD_0" : 41}}]},
  {
   "primitives" : [
    {
     "mode" : 4,
     "material" : 8,
     "indices" : 9,
     "attributes" : {
      "POSITION" : 29,
      "NORMAL" : 30,
      "TEXCOORD_0" : 42}}]},
  {
   "primitives" : [
    {
     "mode" : 4,
     "material" : 9,
     "indices" : 10,
     "attributes" : {
      "POSITION" : 31,
      "NORMAL" : 32,
      "TEXCOORD_0" : 43}}]}],
 "materials" : [
  {
   "name" : "Color #ff8000ff",
   "pbrMetallicRoughness" : {
    "baseColorFactor" : [1.000000, 0.501961, 0.000000, 1.000000],
    "metallicFactor" : 0,
    "roughnessFactor" : 1},
   "emissiveFactor" : [0.000000, 0.000000, 0.000000]},
  {
   "name" : "Color #ccccccff",
   "pbrMetallicRoughness" : {
    "baseColorFactor" : [0.800000, 0.800000, 0.800000, 1.000000],
    "metallicFactor" : 0,
    "roughnessFactor" : 1},
   "emissiveFactor" : [0.000000, 0.000000, 0.000000]},
  {
   "name" : "Color #010101ff",
   "pbrMetallicRoughness" : {
    "baseColorFactor" : [0.004000, 0.004000, 0.004000, 1.000000],
    "metallicFactor" : 0,
    "roughnessFactor" : 1},
   "emissiveFactor" : [0.000000, 0.000000, 0.000000]},
  {
   "name" : "Color #bab583ff",
   "pbrMetallicRoughness" : {
    "baseColorFactor" : [0.733000, 0.713000, 0.516000, 1.000000],
    "metallicFactor" : 0,
    "roughnessFactor" : 1},
   "emissiveFactor" : [0.000000, 0.000000, 0.000000]},
  {
   "name" : "Color #00ff00ff",
   "pbrMetallicRoughness" : {
    "baseColorFactor" : [0.800000, 0.800000, 0.800000, 1.000000],
    "metallicFactor" : 0.99,
    "roughnessFactor" : 0.1},
   "emissiveFactor" : [0.000000, 0.000000, 0.000000]},
  {
   "name" : "Color #f4f4f4ff",
   "pbrMetallicRoughness" : {
    "baseColorFactor" : [0.960000, 0.960000, 0.960000, 1.000000],
    "metallicFactor" : 0,
    "roughnessFactor" : 1},
   "emissiveFactor" : [0.000000, 0.000000, 0.000000]},
  {
   "name" : "Color #4b4b4bff",
   "pbrMetallicRoughness" : {
    "baseColorFactor" : [0.100000, 0.100000, 0.100000, 1.000000],
    "metallicFactor" : 0.8,
    "roughnessFactor" : 0.6},
   "emissiveFactor" : [0.000000, 0.000000, 0.000000]},
  {
   "name" : "Color #323232ff",
   "pbrMetallicRoughness" : {
    "baseColorFactor" : [0.070000, 0.070000, 0.070000, 1.000000],
    "metallicFactor" : 0.8,
    "roughnessFactor" : 0.6},
   "emissiveFactor" : [0.000000, 0.000000, 0.000000]},
  {
   "name" : "Color #959595ff",
   "pbrMetallicRoughness" : {
    "baseColorFactor" : [0.900000, 0.900000, 0.900000, 1.000000],
    "metallicFactor" : 0.282,
    "roughnessFactor" : 0.363},
   "emissiveFactor" : [0.000000, 0.000000, 0.000000]},
  {
   "name" : "Color #ffffffff",
   "pbrMetallicRoughness" : {
    "baseColorFactor" : [1.000000, 1.000000, 1.000000, 1.000000],
    "metallicFactor" : 0,
    "roughnessFactor" : 1},
   "emissiveFactor" : [0.000000, 0.000000, 0.000000]}],
 "samplers" : [
  {
}]}